<svg width="481" height="122" viewBox="0 0 481 122" fill="none" xmlns="http://www.w3.org/2000/svg">
<path d="M116.655 65.35C120.68 65.35 124.11 63.915 126.385 61.255L123.445 58.455C121.66 60.415 119.455 61.36 116.9 61.36C111.825 61.36 108.15 57.79 108.15 52.75C108.15 47.71 111.825 44.14 116.9 44.14C119.455 44.14 121.66 45.085 123.445 47.01L126.385 44.245C124.11 41.585 120.68 40.15 116.69 40.15C109.165 40.15 103.565 45.435 103.565 52.75C103.565 60.065 109.165 65.35 116.655 65.35ZM143.532 46.31V55.76C143.532 59.505 141.467 61.395 138.422 61.395C135.657 61.395 134.047 59.785 134.047 56.39V46.31H129.672V56.985C129.672 62.62 132.927 65.245 137.722 65.245C140.137 65.245 142.342 64.335 143.742 62.62V65H147.907V46.31H143.532ZM159.41 65.245C164.66 65.245 167.88 62.97 167.88 59.47C167.88 52.155 156.33 55.515 156.33 51.735C156.33 50.51 157.59 49.635 160.25 49.635C162.035 49.635 163.82 49.985 165.605 51.035L167.285 47.71C165.605 46.695 162.77 46.1 160.285 46.1C155.245 46.1 152.06 48.41 152.06 51.945C152.06 59.4 163.61 56.04 163.61 59.61C163.61 60.905 162.455 61.675 159.69 61.675C157.345 61.675 154.825 60.905 153.18 59.82L151.5 63.145C153.18 64.335 156.295 65.245 159.41 65.245ZM181.658 60.87C180.993 61.395 180.118 61.64 179.208 61.64C177.528 61.64 176.618 60.66 176.618 58.84V49.95H181.623V46.45H176.618V42.18H172.243V46.45H169.163V49.95H172.243V58.945C172.243 63.075 174.588 65.245 178.683 65.245C180.258 65.245 181.833 64.825 182.883 63.985L181.658 60.87ZM194.267 65.245C200.077 65.245 204.242 61.255 204.242 55.655C204.242 50.055 200.077 46.1 194.267 46.1C188.527 46.1 184.327 50.055 184.327 55.655C184.327 61.255 188.527 65.245 194.267 65.245ZM194.267 61.5C191.117 61.5 188.737 59.225 188.737 55.655C188.737 52.085 191.117 49.81 194.267 49.81C197.452 49.81 199.832 52.085 199.832 55.655C199.832 59.225 197.452 61.5 194.267 61.5ZM232.015 46.1C229.04 46.1 226.52 47.29 225.015 49.215C223.72 47.115 221.445 46.1 218.715 46.1C216.16 46.1 213.99 47.01 212.59 48.69V46.31H208.425V65H212.8V55.515C212.8 51.805 214.76 49.915 217.665 49.915C220.325 49.915 221.865 51.525 221.865 54.85V65H226.24V55.515C226.24 51.805 228.235 49.915 231.105 49.915C233.765 49.915 235.305 51.525 235.305 54.85V65H239.68V54.29C239.68 48.655 236.53 46.1 232.015 46.1ZM263.012 55.76C263.012 49.915 259.022 46.1 253.562 46.1C247.997 46.1 243.902 50.09 243.902 55.655C243.902 61.22 247.962 65.245 254.227 65.245C257.447 65.245 260.072 64.195 261.752 62.2L259.407 59.505C258.077 60.87 256.432 61.535 254.332 61.535C251.077 61.535 248.802 59.785 248.277 57.055H262.942C262.977 56.635 263.012 56.11 263.012 55.76ZM253.562 49.6C256.432 49.6 258.497 51.455 258.847 54.15H248.242C248.662 51.42 250.727 49.6 253.562 49.6ZM271.379 49.04V46.31H267.214V65H271.589V55.935C271.589 52.12 273.689 50.16 277.014 50.16C277.329 50.16 277.644 50.195 278.029 50.265V46.1C274.914 46.1 272.639 47.08 271.379 49.04ZM310.344 65H315.104L304.044 40.5H299.564L288.539 65H293.229L295.644 59.33H307.894L310.344 65ZM297.184 55.76L301.769 45.05L306.389 55.76H297.184ZM323.404 65.245C328.654 65.245 331.874 62.97 331.874 59.47C331.874 52.155 320.324 55.515 320.324 51.735C320.324 50.51 321.584 49.635 324.244 49.635C326.029 49.635 327.814 49.985 329.599 51.035L331.279 47.71C329.599 46.695 326.764 46.1 324.279 46.1C319.239 46.1 316.054 48.41 316.054 51.945C316.054 59.4 327.604 56.04 327.604 59.61C327.604 60.905 326.449 61.675 323.684 61.675C321.339 61.675 318.819 60.905 317.174 59.82L315.494 63.145C317.174 64.335 320.289 65.245 323.404 65.245ZM341.417 65.245C346.667 65.245 349.887 62.97 349.887 59.47C349.887 52.155 338.337 55.515 338.337 51.735C338.337 50.51 339.597 49.635 342.257 49.635C344.042 49.635 345.827 49.985 347.612 51.035L349.292 47.71C347.612 46.695 344.777 46.1 342.292 46.1C337.252 46.1 334.067 48.41 334.067 51.945C334.067 59.4 345.617 56.04 345.617 59.61C345.617 60.905 344.462 61.675 341.697 61.675C339.352 61.675 336.832 60.905 335.187 59.82L333.507 63.145C335.187 64.335 338.302 65.245 341.417 65.245ZM355.86 43.23C357.505 43.23 358.66 42.04 358.66 40.5C358.66 39.065 357.47 37.98 355.86 37.98C354.25 37.98 353.06 39.135 353.06 40.605C353.06 42.075 354.25 43.23 355.86 43.23ZM353.655 65H358.03V46.31H353.655V65ZM369.547 65.245C374.797 65.245 378.017 62.97 378.017 59.47C378.017 52.155 366.467 55.515 366.467 51.735C366.467 50.51 367.727 49.635 370.387 49.635C372.172 49.635 373.957 49.985 375.742 51.035L377.422 47.71C375.742 46.695 372.907 46.1 370.422 46.1C365.382 46.1 362.197 48.41 362.197 51.945C362.197 59.4 373.747 56.04 373.747 59.61C373.747 60.905 372.592 61.675 369.827 61.675C367.482 61.675 364.962 60.905 363.317 59.82L361.637 63.145C363.317 64.335 366.432 65.245 369.547 65.245ZM391.795 60.87C391.13 61.395 390.255 61.64 389.345 61.64C387.665 61.64 386.755 60.66 386.755 58.84V49.95H391.76V46.45H386.755V42.18H382.38V46.45H379.3V49.95H382.38V58.945C382.38 63.075 384.725 65.245 388.82 65.245C390.395 65.245 391.97 64.825 393.02 63.985L391.795 60.87ZM403.759 46.1C400.749 46.1 397.844 46.87 395.849 48.41L397.564 51.595C398.964 50.44 401.134 49.74 403.234 49.74C406.349 49.74 407.889 51.245 407.889 53.8V54.08H403.059C397.389 54.08 395.289 56.53 395.289 59.645C395.289 62.9 397.984 65.245 402.254 65.245C405.054 65.245 407.084 64.335 408.134 62.725V65H412.264V54.045C412.264 48.655 409.149 46.1 403.759 46.1ZM403.164 62.06C400.924 62.06 399.594 61.045 399.594 59.47C399.594 58.105 400.399 56.985 403.374 56.985H407.889V59.155C407.154 61.08 405.299 62.06 403.164 62.06ZM428.483 46.1C425.753 46.1 423.478 47.01 422.043 48.725V46.31H417.878V65H422.253V55.55C422.253 51.805 424.353 49.915 427.468 49.915C430.268 49.915 431.913 51.525 431.913 54.85V65H436.288V54.29C436.288 48.655 432.963 46.1 428.483 46.1ZM450.584 65.245C454.224 65.245 457.129 63.67 458.564 60.87L455.204 58.91C454.084 60.695 452.404 61.5 450.549 61.5C447.329 61.5 444.879 59.295 444.879 55.655C444.879 52.05 447.329 49.81 450.549 49.81C452.404 49.81 454.084 50.615 455.204 52.4L458.564 50.44C457.129 47.605 454.224 46.1 450.584 46.1C444.669 46.1 440.469 50.055 440.469 55.655C440.469 61.255 444.669 65.245 450.584 65.245ZM479.643 55.76C479.643 49.915 475.653 46.1 470.193 46.1C464.628 46.1 460.533 50.09 460.533 55.655C460.533 61.22 464.593 65.245 470.858 65.245C474.078 65.245 476.703 64.195 478.383 62.2L476.038 59.505C474.708 60.87 473.063 61.535 470.963 61.535C467.708 61.535 465.433 59.785 464.908 57.055H479.573C479.608 56.635 479.643 56.11 479.643 55.76ZM470.193 49.6C473.063 49.6 475.128 51.455 475.478 54.15H464.873C465.293 51.42 467.358 49.6 470.193 49.6Z" fill="#5FB0B4"/>
<path d="M109.102 112V85.6L110.822 87.48H102.782V84H113.062V112H109.102ZM126.746 102.68V99.36H137.506V102.68H126.746ZM159.819 112.32C157.552 112.32 155.592 111.987 153.939 111.32C152.286 110.653 151.006 109.707 150.099 108.48C149.192 107.227 148.739 105.76 148.739 104.08C148.739 102.427 149.166 101.027 150.019 99.88C150.899 98.7067 152.166 97.8267 153.819 97.24C155.472 96.6267 157.472 96.32 159.819 96.32C162.166 96.32 164.166 96.6267 165.819 97.24C167.499 97.8267 168.779 98.7067 169.659 99.88C170.539 101.053 170.979 102.453 170.979 104.08C170.979 105.76 170.526 107.227 169.619 108.48C168.712 109.707 167.419 110.653 165.739 111.32C164.059 111.987 162.086 112.32 159.819 112.32ZM159.819 109.08C162.059 109.08 163.806 108.627 165.059 107.72C166.339 106.787 166.979 105.533 166.979 103.96C166.979 102.413 166.339 101.2 165.059 100.32C163.806 99.4133 162.059 98.96 159.819 98.96C157.606 98.96 155.872 99.4133 154.619 100.32C153.366 101.2 152.739 102.413 152.739 103.96C152.739 105.533 153.366 106.787 154.619 107.72C155.872 108.627 157.606 109.08 159.819 109.08ZM159.819 98.48C157.686 98.48 155.872 98.2 154.379 97.64C152.886 97.0533 151.739 96.2267 150.939 95.16C150.139 94.0667 149.739 92.7733 149.739 91.28C149.739 89.7067 150.152 88.36 150.979 87.24C151.832 86.0933 153.019 85.2133 154.539 84.6C156.059 83.9867 157.819 83.68 159.819 83.68C161.846 83.68 163.619 83.9867 165.139 84.6C166.659 85.2133 167.846 86.0933 168.699 87.24C169.552 88.36 169.979 89.7067 169.979 91.28C169.979 92.7733 169.579 94.0667 168.779 95.16C167.979 96.2267 166.819 97.0533 165.299 97.64C163.779 98.2 161.952 98.48 159.819 98.48ZM159.819 95.92C161.766 95.92 163.286 95.52 164.379 94.72C165.499 93.92 166.059 92.8267 166.059 91.44C166.059 90.0267 165.486 88.92 164.339 88.12C163.192 87.32 161.686 86.92 159.819 86.92C157.952 86.92 156.459 87.32 155.339 88.12C154.246 88.92 153.699 90.0267 153.699 91.44C153.699 92.8267 154.232 93.92 155.299 94.72C156.392 95.52 157.899 95.92 159.819 95.92ZM193.281 112.32C191.094 112.32 189.134 111.76 187.401 110.64C185.694 109.52 184.334 107.893 183.321 105.76C182.334 103.627 181.841 101.04 181.841 98C181.841 94.96 182.334 92.3733 183.321 90.24C184.334 88.1067 185.694 86.48 187.401 85.36C189.134 84.24 191.094 83.68 193.281 83.68C195.441 83.68 197.388 84.24 199.121 85.36C200.854 86.48 202.214 88.1067 203.201 90.24C204.188 92.3733 204.681 94.96 204.681 98C204.681 101.04 204.188 103.627 203.201 105.76C202.214 107.893 200.854 109.52 199.121 110.64C197.388 111.76 195.441 112.32 193.281 112.32ZM193.281 108.76C194.748 108.76 196.028 108.36 197.121 107.56C198.241 106.76 199.108 105.56 199.721 103.96C200.361 102.36 200.681 100.373 200.681 98C200.681 95.6267 200.361 93.64 199.721 92.04C199.108 90.44 198.241 89.24 197.121 88.44C196.028 87.64 194.748 87.24 193.281 87.24C191.814 87.24 190.521 87.64 189.401 88.44C188.281 89.24 187.401 90.44 186.761 92.04C186.148 93.64 185.841 95.6267 185.841 98C185.841 100.373 186.148 102.36 186.761 103.96C187.401 105.56 188.281 106.76 189.401 107.56C190.521 108.36 191.814 108.76 193.281 108.76ZM227.161 112.32C224.974 112.32 223.014 111.76 221.281 110.64C219.574 109.52 218.214 107.893 217.201 105.76C216.214 103.627 215.721 101.04 215.721 98C215.721 94.96 216.214 92.3733 217.201 90.24C218.214 88.1067 219.574 86.48 221.281 85.36C223.014 84.24 224.974 83.68 227.161 83.68C229.321 83.68 231.267 84.24 233.001 85.36C234.734 86.48 236.094 88.1067 237.081 90.24C238.067 92.3733 238.561 94.96 238.561 98C238.561 101.04 238.067 103.627 237.081 105.76C236.094 107.893 234.734 109.52 233.001 110.64C231.267 111.76 229.321 112.32 227.161 112.32ZM227.161 108.76C228.627 108.76 229.907 108.36 231.001 107.56C232.121 106.76 232.987 105.56 233.601 103.96C234.241 102.36 234.561 100.373 234.561 98C234.561 95.6267 234.241 93.64 233.601 92.04C232.987 90.44 232.121 89.24 231.001 88.44C229.907 87.64 228.627 87.24 227.161 87.24C225.694 87.24 224.401 87.64 223.281 88.44C222.161 89.24 221.281 90.44 220.641 92.04C220.027 93.64 219.721 95.6267 219.721 98C219.721 100.373 220.027 102.36 220.641 103.96C221.281 105.56 222.161 106.76 223.281 107.56C224.401 108.36 225.694 108.76 227.161 108.76ZM250.234 102.68V99.36H260.994V102.68H250.234ZM281.426 112.32C279.453 112.32 277.533 112.013 275.666 111.4C273.826 110.787 272.32 109.96 271.146 108.92L272.986 105.76C273.92 106.64 275.133 107.36 276.626 107.92C278.12 108.48 279.706 108.76 281.386 108.76C283.52 108.76 285.16 108.307 286.306 107.4C287.453 106.493 288.026 105.28 288.026 103.76C288.026 102.72 287.773 101.813 287.266 101.04C286.76 100.267 285.88 99.68 284.626 99.28C283.4 98.8533 281.706 98.64 279.546 98.64H273.186L274.666 84H290.466V87.48H276.146L278.226 85.52L277.066 97.08L274.986 95.16H280.386C283.186 95.16 285.44 95.52 287.146 96.24C288.853 96.96 290.093 97.96 290.866 99.24C291.64 100.493 292.026 101.947 292.026 103.6C292.026 105.2 291.64 106.667 290.866 108C290.093 109.307 288.92 110.36 287.346 111.16C285.8 111.933 283.826 112.32 281.426 112.32ZM311.4 112.32C309.427 112.32 307.507 112.013 305.64 111.4C303.8 110.787 302.293 109.96 301.12 108.92L302.96 105.76C303.893 106.64 305.107 107.36 306.6 107.92C308.093 108.48 309.68 108.76 311.36 108.76C313.493 108.76 315.133 108.307 316.28 107.4C317.427 106.493 318 105.28 318 103.76C318 102.72 317.747 101.813 317.24 101.04C316.733 100.267 315.853 99.68 314.6 99.28C313.373 98.8533 311.68 98.64 309.52 98.64H303.16L304.64 84H320.44V87.48H306.12L308.2 85.52L307.04 97.08L304.96 95.16H310.36C313.16 95.16 315.413 95.52 317.12 96.24C318.827 96.96 320.067 97.96 320.84 99.24C321.613 100.493 322 101.947 322 103.6C322 105.2 321.613 106.667 320.84 108C320.067 109.307 318.893 110.36 317.32 111.16C315.773 111.933 313.8 112.32 311.4 112.32ZM341.373 112.32C339.4 112.32 337.48 112.013 335.613 111.4C333.773 110.787 332.267 109.96 331.093 108.92L332.933 105.76C333.867 106.64 335.08 107.36 336.573 107.92C338.067 108.48 339.653 108.76 341.333 108.76C343.467 108.76 345.107 108.307 346.253 107.4C347.4 106.493 347.973 105.28 347.973 103.76C347.973 102.72 347.72 101.813 347.213 101.04C346.707 100.267 345.827 99.68 344.573 99.28C343.347 98.8533 341.653 98.64 339.493 98.64H333.133L334.613 84H350.413V87.48H336.093L338.173 85.52L337.013 97.08L334.933 95.16H340.333C343.133 95.16 345.387 95.52 347.093 96.24C348.8 96.96 350.04 97.96 350.813 99.24C351.587 100.493 351.973 101.947 351.973 103.6C351.973 105.2 351.587 106.667 350.813 108C350.04 109.307 348.867 110.36 347.293 111.16C345.747 111.933 343.773 112.32 341.373 112.32ZM362.862 102.68V99.36H373.622V102.68H362.862ZM389.031 112V85.6L390.751 87.48H382.711V84H392.991V112H389.031ZM405.876 112V109.28L417.276 98.28C418.289 97.32 419.036 96.48 419.516 95.76C420.023 95.0133 420.356 94.3333 420.516 93.72C420.703 93.08 420.796 92.4667 420.796 91.88C420.796 90.44 420.289 89.3067 419.276 88.48C418.263 87.6533 416.783 87.24 414.836 87.24C413.343 87.24 411.996 87.4933 410.796 88C409.596 88.48 408.556 89.24 407.676 90.28L404.956 87.92C406.023 86.56 407.449 85.52 409.236 84.8C411.049 84.0533 413.036 83.68 415.196 83.68C417.143 83.68 418.836 84 420.276 84.64C421.716 85.2533 422.823 86.1467 423.596 87.32C424.396 88.4933 424.796 89.88 424.796 91.48C424.796 92.3867 424.676 93.28 424.436 94.16C424.196 95.04 423.743 95.9733 423.076 96.96C422.409 97.9467 421.449 99.0533 420.196 100.28L410.036 110.08L409.076 108.52H425.996V112H405.876ZM441.205 112V85.6L442.925 87.48H434.885V84H445.165V112H441.205ZM458.05 112V109.28L469.45 98.28C470.463 97.32 471.21 96.48 471.69 95.76C472.196 95.0133 472.53 94.3333 472.69 93.72C472.876 93.08 472.97 92.4667 472.97 91.88C472.97 90.44 472.463 89.3067 471.45 88.48C470.436 87.6533 468.956 87.24 467.01 87.24C465.516 87.24 464.17 87.4933 462.97 88C461.77 88.48 460.73 89.24 459.85 90.28L457.13 87.92C458.196 86.56 459.623 85.52 461.41 84.8C463.223 84.0533 465.21 83.68 467.37 83.68C469.316 83.68 471.01 84 472.45 84.64C473.89 85.2533 474.996 86.1467 475.77 87.32C476.57 88.4933 476.97 89.88 476.97 91.48C476.97 92.3867 476.85 93.28 476.61 94.16C476.37 95.04 475.916 95.9733 475.25 96.96C474.583 97.9467 473.623 99.0533 472.37 100.28L462.21 110.08L461.25 108.52H478.17V112H458.05Z" fill="white"/>
<rect x="2" y="36" width="81" height="81" stroke="#73BABD" stroke-width="4"/>
<path d="M18.1562 52.1562H26.4087V60.4087H18.1562V52.1562Z" fill="#73BABD"/>
<path d="M34.6596 43.9023V68.6596H9.90234V43.9023H34.6596ZM30.5334 48.0286H14.0286V64.5334H30.5334V48.0286ZM26.4072 93.4169H18.1548V101.669H26.4072V93.4169Z" fill="#73BABD"/>
<path d="M34.6596 85.166V109.923H9.90234V85.166H34.6596ZM14.0286 89.2922V105.797H30.5334V89.2922H14.0286ZM59.4169 52.1562H67.6693V60.4087H59.4169V52.1562Z" fill="#73BABD"/>
<path d="M51.1645 43.9023V68.6596H75.9218V43.9023H51.1645ZM71.7955 48.0286V64.5334H55.2907V48.0286H71.7955ZM42.9121 48.0286V43.9023H47.0383V52.1548H42.9121V60.4072H38.7858V48.0286H42.9121ZM42.9121 68.6596V60.4072H47.0383V68.6596H42.9121ZM34.6596 76.9121V72.7858H38.7858V68.6596H42.9121V76.9121H47.0383V72.7858H67.6693V76.9121H51.1645V81.0383H38.7858V76.9121H34.6596ZM34.6596 76.9121V81.0383H18.1548V76.9121H14.0286V81.0383H9.90234V72.7858H22.281V76.9121H34.6596ZM75.9218 81.0383H71.7955V72.7858H75.9218V81.0383ZM71.7955 81.0383H67.6693V89.2907H75.9218V85.1645H71.7955V81.0383ZM55.2907 81.0383H63.5431V85.1645H59.4169V89.2907H55.2907V81.0383ZM63.5431 93.4169V89.2907H59.4169V93.4169H55.2907V97.5431H47.0383V101.669H59.4169V93.4169H63.5431ZM63.5431 93.4169H75.9218V97.5431H67.6693V101.669H63.5431V93.4169ZM47.0383 89.2907V93.4169H51.1645V85.1645H38.7858V89.2907H47.0383Z" fill="#73BABD"/>
<path d="M38.7852 93.418H42.9114V105.797H59.4162V109.923H38.7852V93.418ZM75.9211 101.67V109.923H63.5424V105.797H71.7949V101.67H75.9211Z" fill="#73BABD"/>
<line x1="1" y1="0.5" x2="479" y2="0.500042" stroke="#5BA9B7"/>
</svg>
