<svg width="106" height="131" viewBox="0 0 106 131" fill="none" xmlns="http://www.w3.org/2000/svg">
<path d="M93.7511 6.01409C92.5733 2.50091 89.2756 0 85.3889 0H20.6111C16.7244 0 13.4856 2.50091 12.2489 6.01409L0 41.6818V89.3182C0 92.5932 2.65 95.2727 5.88889 95.2727H11.7778C15.0167 95.2727 17.6667 92.5932 17.6667 89.3182V83.3636H88.3333V89.3182C88.3333 92.5932 90.9833 95.2727 94.2222 95.2727H100.111C103.35 95.2727 106 92.5932 106 89.3182V41.6818L93.7511 6.01409ZM20.6111 65.5C15.7233 65.5 11.7778 61.5105 11.7778 56.5682C11.7778 51.6259 15.7233 47.6364 20.6111 47.6364C25.4989 47.6364 29.4444 51.6259 29.4444 56.5682C29.4444 61.5105 25.4989 65.5 20.6111 65.5ZM85.3889 65.5C80.5011 65.5 76.5556 61.5105 76.5556 56.5682C76.5556 51.6259 80.5011 47.6364 85.3889 47.6364C90.2767 47.6364 94.2222 51.6259 94.2222 56.5682C94.2222 61.5105 90.2767 65.5 85.3889 65.5ZM11.7778 35.7273L20.6111 8.93182H85.3889L94.2222 35.7273H11.7778ZM23.5556 113.136H47.1111V101.227L82.4444 119.091H58.8889V131L23.5556 113.136Z" fill="#6EFFD2" fill-opacity="0.8"/>
</svg>
