<?xml version="1.0" encoding="UTF-8"?><svg id="Layer_2" xmlns="http://www.w3.org/2000/svg" viewBox="0 0 1044.63 411.64"><defs><style>.cls-1{fill:none;stroke:#75d0bd;stroke-miterlimit:10;stroke-width:15px;}.cls-2{fill:#75d0bd;}</style></defs><g id="Layer_1-2"><path class="cls-2" d="M140.27,403.22H46.21V18.74C46.21,8.39,54.6,0,64.95,0h56.58c10.35,0,18.74,8.39,18.74,18.74V403.22Z"/><line class="cls-1" y1="403.22" x2="186.48" y2="403.22"/><path class="cls-1" d="M132.06,223.93s-10.1,91.16,53.9,91.16c75.13,0,26.83-138.94,98.44-138.94"/><path class="cls-2" d="M336.36,124.19c-28.99,0-52.43,23.74-51.95,52.84,.48,28.49,24.31,51.07,52.8,51.07h19.71c7.7,0,13.94-6.24,13.94-13.94v-76.02c0-7.7-6.24-13.94-13.94-13.94h-20.56Z"/><line class="cls-1" x1="366.87" y1="151.94" x2="407.98" y2="151.94"/><line class="cls-1" x1="366.87" y1="199.5" x2="407.98" y2="199.5"/><path class="cls-2" d="M565.92,189.75l-25.49-13.42c-5.59-2.94-7.73-9.86-4.79-15.45l4.49-8.53c2.94-5.59,9.86-7.73,15.45-4.79l25.49,13.42c5.59,2.94,7.73,9.86,4.79,15.45l-4.49,8.53c-2.94,5.58-9.86,7.73-15.45,4.79Z"/><path class="cls-2" d="M989.51,189.75l25.49-13.42c5.59-2.94,7.73-9.86,4.79-15.45l-4.49-8.53c-2.94-5.59-9.86-7.73-15.45-4.79l-25.49,13.42c-5.59,2.94-7.73,9.86-4.79,15.45l4.49,8.53c2.95,5.58,9.87,7.73,15.45,4.79Z"/><path class="cls-2" d="M995.75,187.33h-434.38l41.79-72.24c18.64-32.22,53.34-52.24,90.56-52.24h169.67c37.22,0,71.93,20.02,90.56,52.24l41.8,72.24Zm-408.38-15h382.37l-28.77-49.73c-15.97-27.6-45.69-44.75-77.58-44.75h-169.67c-31.89,0-61.61,17.15-77.58,44.75l-28.77,49.73Z"/><path class="cls-2" d="M511.63,371.54v22.53c0,9.7,7.87,17.57,17.57,17.57h80.32c9.7,0,17.57-7.87,17.57-17.57v-22.53h-115.46Z"/><path class="cls-2" d="M928.82,371.54v22.53c0,9.7,7.87,17.57,17.57,17.57h80.32c9.7,0,17.57-7.87,17.57-17.57v-22.53h-115.46Z"/><path class="cls-2" d="M1044.36,348.39h-16.63v-5h16.45c-5.68-147.07-62.27-166.09-62.27-166.09l-169.44,.73-238.1-.73s-56.6,19-62.28,166.09h17.82v5h-17.98c-.03,1.05-.07,2.09-.1,3.15h-.2v9.88h533c-.04-4.46-.14-8.79-.27-13.03Zm-385.37-50.47c-14.32,9.24-37.05,18.32-64.16,9.18-29.41-9.91-34.41-37.69-34.06-56.92,.15-8.48,9.71-13.34,16.71-8.55,14.51,9.91,40.28,24.72,78.9,37.2,8.54,2.76,10.15,14.23,2.61,19.09Zm220.86,50.47h-198.77v-5h198.77v5Zm0-11.98h-198.77v-5h198.77v5Zm85.28-29.31c-27.11,9.14-49.84,.06-64.16-9.18-7.55-4.87-5.94-16.33,2.61-19.09,38.62-12.48,64.4-27.29,78.9-37.2,7-4.78,16.56,.08,16.71,8.55,.35,19.24-4.65,47.01-34.06,56.92Z"/></g></svg>