<svg width="350" height="141" viewBox="0 0 350 141" fill="none" xmlns="http://www.w3.org/2000/svg">
<path d="M11.0911 13.1733C13.2236 10.3302 14.7233 9.32614 15.8587 8.72216C33.3909 9.02707 71.8001 8.72216 79.962 8.72216C81.7475 5.66145 86.9762 2.61126 89.3674 1.46875H167.4C173.649 5.67723 188.801 7.44807 195.596 7.80743C224.325 9.06189 232.96 11.2604 254.311 19.2677C275.564 27.2383 310.282 50.2664 316.705 61.8776C331.396 63.1293 336.002 77.0573 336.469 83.8648C338.912 86.6921 344.72 93.335 348.409 97.2877C349.595 136.288 319.972 141.317 305.011 138.956L290.683 125.616C281.447 124.008 275.05 121.055 266.026 103.842C235.969 89.1837 202.208 97.5852 199.769 98.3583C196.165 99.5009 175.589 109.729 172.759 110.628C169.131 111.781 155.774 112.218 146.741 112.218C133.863 112.107 108.129 112.607 104.195 112.218C100.472 111.851 95.0904 107.464 93.1653 105.243L40.7444 106.132C35.7097 106.983 24.0631 106.642 17.7548 98.4683C9.86945 88.2507 2.87234 80.3653 1.20642 56.2651C-0.459495 32.1648 8.4254 16.7273 11.0911 13.1733Z" fill="white" stroke="black" stroke-width="2"/>
<path d="M48.0837 106.055C54.7953 98.6157 66.9591 80.0531 68.2182 65.5874C69.6514 49.1211 69.3727 34.8398 63.3579 21.2521C62.0302 18.2528 59.8704 14.0943 59.8704 14.0943M15.9453 8.74442L56.2847 13.5045C57.8903 13.7564 59.8704 14.0943 59.8704 14.0943M59.8704 14.0943H130.965M130.965 14.0943C114.557 12.4137 81.4587 9.05258 80.3314 9.05258M130.965 14.0943C135.599 17.3965 143.012 28.4158 143.696 46.1335C144.294 61.6499 142.744 69.4 137.837 83.6288C132.722 98.4587 120 106.412 110.452 108.756L96.3729 108.368M95.9913 1.47266L139.631 8.06952C145.372 11.5077 156.551 25.1404 155.339 52.1662C153.825 85.9483 141.997 99.0993 136.224 103.928C131.607 107.79 119.349 111.341 113.798 112.633" stroke="black" stroke-width="2"/>
<path d="M30.0108 24.6741C30.0108 27.4659 29.3368 29.9447 28.2994 31.6919C27.2491 33.4607 25.9403 34.3209 24.689 34.3209C23.4377 34.3209 22.1289 33.4607 21.0787 31.6919C20.0412 29.9447 19.3672 27.4659 19.3672 24.6741C19.3672 21.8823 20.0412 19.4035 21.0787 17.6563C22.1289 15.8875 23.4377 15.0273 24.689 15.0273C25.9403 15.0273 27.2491 15.8875 28.2994 17.6563C29.3368 19.4035 30.0108 21.8823 30.0108 24.6741Z" fill="black" stroke="#1D2126" stroke-width="2"/>
<path d="M51.4366 28.6663C51.4366 31.4581 50.7626 33.9369 49.7252 35.6841C48.6749 37.4529 47.3661 38.3131 46.1148 38.3131C44.8635 38.3131 43.5547 37.4529 42.5044 35.6841C41.467 33.9369 40.793 31.4581 40.793 28.6663C40.793 25.8745 41.467 23.3957 42.5044 21.6485C43.5547 19.8797 44.8635 19.0195 46.1148 19.0195C47.3661 19.0195 48.6749 19.8797 49.7252 21.6485C50.7626 23.3957 51.4366 25.8745 51.4366 28.6663Z" fill="black" stroke="#1D2126" stroke-width="2"/>
<path d="M20.5611 46.7475C20.5611 50.9315 19.552 54.6709 17.9728 57.3306C16.3807 60.0118 14.3234 61.4363 12.2454 61.4363C10.1674 61.4363 8.1101 60.0118 6.51804 57.3306C4.93878 54.6709 3.92969 50.9315 3.92969 46.7475C3.92969 42.5634 4.93878 38.824 6.51804 36.1643C8.1101 33.4831 10.1674 32.0586 12.2454 32.0586C14.3234 32.0586 16.3807 33.4831 17.9728 36.1643C19.552 38.824 20.5611 42.5634 20.5611 46.7475Z" fill="black" stroke="#1D2126" stroke-width="2"/>
<path d="M42.088 51.6868C41.9518 55.9527 40.8085 59.7334 39.1223 62.3953C37.422 65.0795 35.2913 66.4659 33.1872 66.3987C31.0832 66.3315 29.0452 64.812 27.5196 62.0248C26.0067 59.2607 25.1069 55.4148 25.2431 51.1489C25.3793 46.8831 26.5227 43.1024 28.2089 40.4405C29.9092 37.7563 32.0399 36.3699 34.1439 36.4371C36.248 36.5042 38.2859 38.0238 39.8115 40.811C41.3245 43.575 42.2243 47.4209 42.088 51.6868Z" fill="black" stroke="#1D2126" stroke-width="2"/>
<path d="M64.1223 55.8382C63.8692 60.1507 62.6069 63.9455 60.8229 66.5941C59.0244 69.264 56.8205 70.6142 54.6778 70.4885C52.5351 70.3628 50.5043 68.7641 49.0304 65.9022C47.5684 63.0631 46.7585 59.1467 47.0116 54.8342C47.2646 50.5217 48.5269 46.7268 50.311 44.0783C52.1094 41.4083 54.3133 40.0581 56.456 40.1839C58.5987 40.3096 60.6296 41.9083 62.1034 44.7702C63.5655 47.6092 64.3753 51.5257 64.1223 55.8382Z" fill="black" stroke="#1D2126" stroke-width="2"/>
<path d="M50.6761 84.2803C50.4722 88.4815 49.295 92.1879 47.6086 94.7825C45.9067 97.401 43.8142 98.7221 41.7831 98.6235C39.7521 98.5249 37.7973 97.0074 36.357 94.2364C34.9297 91.4907 34.117 87.6878 34.3209 83.4866C34.5248 79.2854 35.702 75.579 37.3884 72.9844C39.0903 70.3659 41.1829 69.0448 43.2139 69.1434C45.2449 69.242 47.1997 70.7595 48.6401 73.5305C50.0673 76.2762 50.88 80.0791 50.6761 84.2803Z" fill="black" stroke="#1D2126" stroke-width="2"/>
<path d="M28.6474 78.361C28.9536 82.3958 28.3158 86.0686 27.087 88.7362C25.8421 91.4388 24.1095 92.897 22.3163 93.0331C20.5231 93.1692 18.5902 91.9893 16.9517 89.5055C15.3343 87.054 14.1494 83.5196 13.8431 79.4848C13.5368 75.4499 14.1747 71.7772 15.4035 69.1096C16.6484 66.407 18.381 64.9488 20.1742 64.8127C21.9674 64.6766 23.9002 65.8565 25.5388 68.3403C27.1562 70.7918 28.3411 74.3262 28.6474 78.361Z" fill="black" stroke="#1D2126" stroke-width="2"/>
</svg>
