<?xml version="1.0" encoding="utf-8"?>
<!-- Generator: Adobe Illustrator 27.0.1, SVG Export Plug-In . SVG Version: 6.00 Build 0)  -->
<svg version="1.1" id="Layer_1" xmlns="http://www.w3.org/2000/svg" xmlns:xlink="http://www.w3.org/1999/xlink" x="0px" y="0px"
	 viewBox="0 0 256 256" style="enable-background:new 0 0 256 256;" xml:space="preserve">
<style type="text/css">
	.st0{fill:#7BFFF2;}
</style>
<g>
	<path class="st0" d="M96.19,256.45c-4.55-1.35-8.64-3.39-11.39-7.5c-2.01-3-2.84-6.33-3.09-9.87c-0.37-5.32-0.68-10.64-1.19-15.94
		c-0.14-1.42-0.64-2.95-1.41-4.15c-7.8-12.04-14.84-24.47-19.79-37.98c-2.91-7.93-4.99-16.06-4.65-24.61
		c0.42-10.58,4.5-19.14,13.75-24.89c0.66-0.41,1.22-1.55,1.22-2.35c0.06-13.16,0.07-26.32-0.06-39.48c-0.01-0.99-0.88-2.27-1.73-2.9
		C57.45,79.14,51,69.1,48.54,56.39C44.98,38.01,53.6,18.03,69.56,8.04c5.94-3.71,12.32-6.18,19.27-7.11
		c0.46-0.06,0.9-0.31,1.35-0.48c3.33,0,6.67,0,10,0c3.6,0.91,7.32,1.52,10.8,2.79c34.96,12.75,42.93,57.03,14.68,81.19
		c-0.43,0.37-0.85,0.76-1.57,1.42c1.5,0.29,2.68,0.49,3.84,0.76c5.66,1.3,10.52,4.01,14.73,8.01c0.82,0.78,2.32,1.37,3.42,1.25
		c11.39-1.26,20.84,2.21,28.24,11.06c0.43,0.52,1.17,0.98,1.83,1.08c20.45,3.09,29.65,19.05,31.66,36.5
		c1.77,15.35,0.65,30.33-4.21,44.88c-2.7,8.08-6.12,16.05-10.23,23.5c-3.15,5.7-5.21,11.38-5.69,17.79
		c-0.25,3.4-0.8,6.78-1.34,10.15c-1.39,8.63-5.99,13.45-14.48,15.31c-0.23,0.05-0.44,0.21-0.66,0.32
		C146.2,256.45,121.19,256.45,96.19,256.45z M133.74,245.96c0-0.06,0-0.12,0-0.18c11.42,0,22.83,0.03,34.25-0.01
		c4.89-0.02,7.13-2.08,7.77-6.91c0.52-3.88,0.95-7.77,1.54-11.63c0.8-5.21,1.23-10.33,4.23-15.17
		c13.18-21.2,18.81-44.16,15.22-69.19c-2.06-14.39-10.38-22.88-24.64-24.5c-1.61-0.18-3.61-1.28-4.51-2.59
		c-5.76-8.34-13.58-10.79-23.15-8.61c-3.12,0.71-5.56-0.13-7.49-2.64c-4.67-6.07-10.87-8.42-18.43-7.7
		c-6.17,0.59-8.75-1.88-8.76-8.11c-0.02-12.16,0.03-24.33-0.1-36.49c-0.06-5.48-2.42-9.86-7.47-12.35
		c-5.41-2.67-10.81-2.42-15.89,0.94c-4.93,3.26-6.05,8.28-6.04,13.76c0.05,25.66,0.05,51.32,0.19,76.98
		c0.02,4.16-1.37,6.91-5.25,8.67c-4.92,2.23-7.96,6.19-9.12,11.49c-1.67,7.67-0.14,15.08,2.22,22.34
		c4.72,14.53,12.4,27.57,20.57,40.36c1.23,1.93,1.94,4.41,2.21,6.71c0.68,5.87,0.92,11.79,1.46,17.68c0.47,5.23,2.69,7.16,7.94,7.16
		C111.58,245.97,122.66,245.96,133.74,245.96z M120.61,74.13c8.98-7.38,14.48-23.2,9.55-37.69c-5.24-15.4-19.8-25.68-35.6-25.15
		c-16.59,0.56-30.59,11.47-34.78,26.97c-3.81,14.09,1.63,29.05,9.85,35.45c0-0.97,0-1.77,0-2.58c0.01-6.33-0.16-12.66,0.06-18.98
		c0.44-12.36,7.01-20.53,18.91-23.9c14.73-4.16,30.12,5.9,31.58,21.07c0.7,7.27,0.33,14.64,0.43,21.96
		C120.62,72.15,120.61,73.03,120.61,74.13z"/>
</g>
</svg>
